<svg viewBox="0 0 400 250" xmlns="http://www.w3.org/2000/svg">
  <rect width="400" height="250" fill="#18181d"/>
  <path d="M100 180 Q 110 100 140 120 Q 170 140 180 100 Q 190 60 210 80 Q 230 100 240 80 Q 250 60 270 90 Q 290 120 300 110" fill="none" stroke="#e85d3a" stroke-width="2"/>
  <circle cx="295" cy="112" r="8" fill="none" stroke="#e85d3a" stroke-width="1.5"/>
  <circle cx="295" cy="112" r="3" fill="#e85d3a"/>
  <rect x="110" y="185" width="180" height="30" rx="3" fill="none" stroke="#a0a0aa" stroke-width="1.5"/>
  <text x="200" y="205" text-anchor="middle" fill="#63636e" font-family="monospace" font-size="11">&gt; python run.py</text>
  <rect x="110" y="185" width="80" height="30" rx="3" fill="none" stroke="#e85d3a" stroke-width="1" stroke-dasharray="3 2"/>
  <circle cx="125" cy="195" r="2" fill="#e85d3a"/>
  <circle cx="135" cy="195" r="2" fill="#e85d3a"/>
  <circle cx="145" cy="195" r="2" fill="#e85d3a"/>
  <circle cx="260" cy="100" r="2" fill="#a0a0aa"/>
  <circle cx="275" cy="105" r="2" fill="#a0a0aa"/>
  <circle cx="265" cy="115" r="2" fill="#a0a0aa"/>
</svg>