<svg viewBox="0 0 400 250" xmlns="http://www.w3.org/2000/svg">
  <rect width="400" height="250" fill="#18181d"/>
  <rect x="60" y="160" width="40" height="40" fill="none" stroke="#e85d3a" stroke-width="1.5"/>
  <rect x="100" y="160" width="40" height="40" fill="none" stroke="#a0a0aa" stroke-width="1.5"/>
  <rect x="140" y="160" width="40" height="40" fill="none" stroke="#e85d3a" stroke-width="1.5"/>
  <rect x="180" y="160" width="40" height="40" fill="none" stroke="#a0a0aa" stroke-width="1.5"/>
  <rect x="220" y="160" width="40" height="40" fill="none" stroke="#e85d3a" stroke-width="1.5"/>
  <rect x="260" y="160" width="40" height="40" fill="none" stroke="#a0a0aa" stroke-width="1.5"/>
  <rect x="100" y="120" width="40" height="40" fill="none" stroke="#e85d3a" stroke-width="1.5"/>
  <rect x="140" y="120" width="40" height="40" fill="none" stroke="#a0a0aa" stroke-width="1.5"/>
  <rect x="180" y="120" width="40" height="40" fill="none" stroke="#e85d3a" stroke-width="1.5"/>
  <rect x="140" y="80" width="40" height="40" fill="none" stroke="#e85d3a" stroke-width="1.5"/>
  <rect x="180" y="80" width="40" height="40" fill="none" stroke="#a0a0aa" stroke-width="1.5"/>
  <rect x="160" y="40" width="40" height="40" fill="none" stroke="#e85d3a" stroke-width="1.5"/>
  <line x1="160" y1="80" x2="160" y2="60" stroke="#e85d3a" stroke-width="1" stroke-dasharray="2 2"/>
  <line x1="220" y1="80" x2="220" y2="60" stroke="#a0a0aa" stroke-width="1" stroke-dasharray="2 2"/>
  <!-- pickaxe -->
  <line x1="290" y1="80" x2="330" y2="130" stroke="#a0a0aa" stroke-width="2"/>
  <path d="M330 130 L 340 140 L 335 145 L 325 135 Z" fill="none" stroke="#e85d3a" stroke-width="1.5"/>
</svg>